<svg xmlns="http://www.w3.org/2000/svg" xmlns:xlink="http://www.w3.org/1999/xlink" viewBox="0 0 360.41 319.62"><defs><style>.cls-1{fill:#fff;}.cls-1,.cls-2,.cls-3,.cls-4,.cls-5,.cls-7,.cls-8{fill-rule:evenodd;}.cls-2{fill:#ea4e6c;}.cls-3{fill:#ffd504;}.cls-4{fill:#7573b4;}.cls-5{fill:#53b583;}.cls-6{mask:url(#mask);}.cls-7{fill:#30aae1;}.cls-8{fill:#294896;}.cls-9{mask:url(#mask-2-2);}</style><mask id="mask" x="292.4" y="155.74" width="68.01" height="66.15" maskUnits="userSpaceOnUse"><g id="mask-2"><polygon id="path-1" class="cls-1" points="292.4 155.74 360.41 155.74 360.41 221.89 292.4 221.89 292.4 155.74"/></g></mask><mask id="mask-2-2" x="149.98" y="0" width="124.66" height="134.3" maskUnits="userSpaceOnUse"><g id="mask-4"><polygon id="path-3" class="cls-1" points="149.98 0 274.64 0 274.64 134.3 149.98 134.3 149.98 0"/></g></mask></defs><g id="Layer_2" data-name="Layer 2"><g id="Layer_1-2" data-name="Layer 1"><g id="Working-page"><g id="Loading-Screen"><g id="Logo"><polygon id="Fill-1" class="cls-2" points="61.72 129.59 50.52 172.08 25.28 136.04 0 140.51 15.05 223.95 38.2 219.86 30.27 175.91 49.97 204.32 62.32 202.13 70.86 168.73 78.8 212.68 101.94 208.59 86.89 125.15 61.72 129.59"/><g id="Group-38"><path id="Fill-2" class="cls-3" d="M136.13,192.81a14.52,14.52,0,0,0,4.17-.87,16,16,0,0,0,3.76-1.94,9.87,9.87,0,0,0,2.06-2.21,4,4,0,0,0,.72-2.39l-.24-4.69a32.92,32.92,0,0,0-4.5-1,22,22,0,0,0-4.36-.26,11.41,11.41,0,0,0-6.87,2.39,6.23,6.23,0,0,0-2.5,5.31,5.3,5.3,0,0,0,2.32,4.22,8.31,8.31,0,0,0,5.44,1.41m-6,16.68a24.22,24.22,0,0,1-8.85-1.12,21.63,21.63,0,0,1-7.25-3.91,19.44,19.44,0,0,1-5-6.19,19.22,19.22,0,0,1-2.09-8,18.9,18.9,0,0,1,1.6-8.88,21,21,0,0,1,5.3-7.13,26.2,26.2,0,0,1,8.38-4.88,36.52,36.52,0,0,1,10.91-2.12A29.66,29.66,0,0,1,146,169.06l-.09-1.92q-.22-4.44-2.92-6.48t-8.46-1.74a27.62,27.62,0,0,0-9.89,2.25,48.86,48.86,0,0,0-9.36,5.59L108,152.92A51.56,51.56,0,0,1,136,143.43q15.15-.77,23.67,5.55t9.19,19.77l.62,12.25c.1,2.17.5,3.65,1.19,4.46a4.59,4.59,0,0,0,3.44,1.33l1,19.22c-1.83.5-3.55.89-5.19,1.17a36.43,36.43,0,0,1-4.36.52c-4.1.21-7.24-.38-9.44-1.75a10.42,10.42,0,0,1-4.48-6.34l-.59-2.25a29,29,0,0,1-9.32,8.71,25.55,25.55,0,0,1-11.64,3.42"/><path id="Fill-4" class="cls-4" d="M214.78,189.58a11.29,11.29,0,0,0,6.15-1.34,17.69,17.69,0,0,0,5.1-4.64l.53-11.29a15.45,15.45,0,0,0-4.67-7.09,11.3,11.3,0,0,0-6.79-2.85,9.44,9.44,0,0,0-4.56.93,12.71,12.71,0,0,0-3.81,2.83,13.42,13.42,0,0,0-2.62,4.34,17.54,17.54,0,0,0-1.1,5.42,13.11,13.11,0,0,0,3,9.66,11.87,11.87,0,0,0,8.73,4m-9,17.63a25.58,25.58,0,0,1-11.12-3,26.09,26.09,0,0,1-8.4-7.14,31,31,0,0,1-5.12-10.3,40.62,40.62,0,0,1,1.39-25.58,30.77,30.77,0,0,1,6.56-10,28.06,28.06,0,0,1,9.64-6.35,28.35,28.35,0,0,1,12-1.9,25.61,25.61,0,0,1,11.89,3.27,20.08,20.08,0,0,1,7.81,8.26l.44-9.38,19.84.94L248,203.42a31.68,31.68,0,0,1-3.4,13.33,28.72,28.72,0,0,1-8.3,9.85,36.78,36.78,0,0,1-12.44,6,49.87,49.87,0,0,1-15.87,1.6,45,45,0,0,1-17.4-3.95,40.18,40.18,0,0,1-12.8-9.63l12.61-11.93a31.22,31.22,0,0,0,8.1,5.86,24.81,24.81,0,0,0,10.3,2.71,20.79,20.79,0,0,0,6-.56,13.5,13.5,0,0,0,5.11-2.47,12.92,12.92,0,0,0,3.66-4.7,18.52,18.52,0,0,0,1.6-7.15l.2-4.09a17.13,17.13,0,0,1-8.23,7.08,26,26,0,0,1-11.36,1.87"/><polygon id="Fill-6" class="cls-5" points="257.79 210.78 265.13 147.94 287.84 150.59 280.51 213.44 257.79 210.78"/><g id="Group-10"><g class="cls-6"><path id="Fill-8" class="cls-7" d="M293,182.67a34.12,34.12,0,0,1,4.45-11.85,30.47,30.47,0,0,1,8.41-9.13,32.43,32.43,0,0,1,12-5.18,38.41,38.41,0,0,1,15.17,0q11.37,2,18.16,8.14a31,31,0,0,1,9.26,14.24l-23.11,2.71a10.17,10.17,0,0,0-7.82-6.16,10.33,10.33,0,0,0-8.45,2.09q-3.82,2.92-5,9.31t1.43,10.46a10.35,10.35,0,0,0,7.19,4.9,10.17,10.17,0,0,0,9.48-3.07l20.73,10.55a31,31,0,0,1-13.62,10.15q-8.49,3.38-19.87,1.33a38.36,38.36,0,0,1-14.21-5.29,32.43,32.43,0,0,1-9.45-9A30.62,30.62,0,0,1,293,195.33a34.53,34.53,0,0,1-.05-12.66"/></g></g><polygon id="Fill-11" class="cls-8" points="67.54 319.62 53.33 235.4 76.48 231.5 81.88 263.53 102.11 227.18 128.22 222.78 103.97 265.66 144.57 306.64 117.98 311.12 91.87 283.68 86.58 291.4 90.69 315.72 67.54 319.62"/><path id="Fill-13" class="cls-8" d="M169.34,292.11a14.13,14.13,0,0,0,4.21-.71,15.73,15.73,0,0,0,3.83-1.79,10.05,10.05,0,0,0,2.14-2.13,3.94,3.94,0,0,0,.81-2.36l-.06-4.69a33.07,33.07,0,0,0-4.47-1.15,22,22,0,0,0-4.34-.42,11.36,11.36,0,0,0-7,2.13,6.16,6.16,0,0,0-2.7,5.2A5.3,5.3,0,0,0,164,290.5a8.29,8.29,0,0,0,5.37,1.61m-6.65,16.45a24.37,24.37,0,0,1-8.81-1.46,21.53,21.53,0,0,1-7.09-4.18,19.58,19.58,0,0,1-4.72-6.38,19.29,19.29,0,0,1-1.78-8,18.89,18.89,0,0,1,1.93-8.81,21.23,21.23,0,0,1,5.58-6.93,26,26,0,0,1,8.55-4.55,36.49,36.49,0,0,1,11-1.7,29.65,29.65,0,0,1,12.79,2.24l0-1.92q-.06-4.45-2.67-6.58c-1.74-1.43-4.54-2.11-8.39-2.07a28,28,0,0,0-10,1.87,49.56,49.56,0,0,0-9.56,5.23l-6.8-14.11a51.56,51.56,0,0,1,28.42-8.41q15.17-.2,23.44,6.44T203,269.32l.16,12.27c0,2.16.36,3.66,1,4.5a4.65,4.65,0,0,0,3.39,1.46l.24,19.24q-2.76.65-5.22,1a37.94,37.94,0,0,1-4.39.36c-4.09.05-7.21-.66-9.36-2.11a10.42,10.42,0,0,1-4.23-6.51l-.51-2.28a29,29,0,0,1-9.64,8.36,25.59,25.59,0,0,1-11.76,3"/><path id="Fill-15" class="cls-8" d="M241.06,310.16a49.83,49.83,0,0,1-16-3.86,36.91,36.91,0,0,1-12.88-8.83L221,284.35a59.54,59.54,0,0,0,10.9,6.94,27.64,27.64,0,0,0,9.87,2.88c3.2.23,4.88-.65,5-2.65a3.45,3.45,0,0,0-1.65-3,32,32,0,0,0-7.07-3.28,105.3,105.3,0,0,1-10.95-4.59,32.38,32.38,0,0,1-7-4.54,12.9,12.9,0,0,1-3.68-5.09,15.13,15.13,0,0,1-.75-6.33,20.72,20.72,0,0,1,2.56-8.74,21.58,21.58,0,0,1,5.86-6.69,23.85,23.85,0,0,1,8.49-4,31.88,31.88,0,0,1,10.51-.87,48.07,48.07,0,0,1,13.13,2.75,33.9,33.9,0,0,1,12.14,8.23l-9.63,13.06a62.59,62.59,0,0,0-9.45-6.17,19.9,19.9,0,0,0-7.33-2.16,6.71,6.71,0,0,0-3.42.54A2.66,2.66,0,0,0,237,263a3.35,3.35,0,0,0,1.7,3.07,32.93,32.93,0,0,0,7.38,3.13,85.64,85.64,0,0,1,11.25,4.61,29.71,29.71,0,0,1,7.19,4.86,13.52,13.52,0,0,1,3.65,5.57,18.11,18.11,0,0,1,.71,6.86,20.42,20.42,0,0,1-2.44,8.63,18.37,18.37,0,0,1-5.69,6.22,23.91,23.91,0,0,1-8.59,3.61,38.82,38.82,0,0,1-11.09.64"/><path id="Fill-17" class="cls-8" d="M298.77,316.58a50.11,50.11,0,0,1-15.7-5,36.75,36.75,0,0,1-12.23-9.7l9.68-12.48a59.76,59.76,0,0,0,10.39,7.68,27.68,27.68,0,0,0,9.65,3.57q4.76.68,5.19-2.3a3.45,3.45,0,0,0-1.44-3.12,31.24,31.24,0,0,0-6.82-3.77,105.64,105.64,0,0,1-10.61-5.34,32.5,32.5,0,0,1-6.7-5,12.87,12.87,0,0,1-3.31-5.33,15.08,15.08,0,0,1-.3-6.36,20.57,20.57,0,0,1,3.16-8.54,21.51,21.51,0,0,1,6.3-6.27,24,24,0,0,1,8.76-3.43,32.23,32.23,0,0,1,10.54-.14,48.58,48.58,0,0,1,12.91,3.66,34,34,0,0,1,11.53,9.06l-10.51,12.35a62.73,62.73,0,0,0-9-6.81,20,20,0,0,0-7.16-2.66,6.61,6.61,0,0,0-3.45.3A2.64,2.64,0,0,0,298,269.2a3.36,3.36,0,0,0,1.49,3.19,32.62,32.62,0,0,0,7.14,3.63,85.84,85.84,0,0,1,10.9,5.39,30.46,30.46,0,0,1,6.84,5.34,13.72,13.72,0,0,1,3.24,5.81,18.07,18.07,0,0,1,.23,6.9,20.28,20.28,0,0,1-3,8.44,18.42,18.42,0,0,1-6.12,5.81,23.79,23.79,0,0,1-8.81,3,38.87,38.87,0,0,1-11.11-.13"/><path id="Fill-19" class="cls-3" d="M266.64,4l-.74.33a4.59,4.59,0,0,1,.6.27c.05-.2.09-.39.14-.6"/><path id="Fill-21" class="cls-3" d="M281.06,41.07h.13l-.13-.15v.16"/><path id="Fill-23" class="cls-3" d="M205.57,14a.92.92,0,0,1,.31.81l-.29,2.39a.94.94,0,0,0,1.41.92l2.07-1.23a1,1,0,0,1,.87,0l2.19,1a.94.94,0,0,0,1.31-1.05l-.53-2.35a.92.92,0,0,1,.23-.84l1.64-1.77a.94.94,0,0,0-.6-1.57l-2.4-.22a.94.94,0,0,1-.73-.48l-1.18-2.11a.93.93,0,0,0-1.67.09l-1,2.21a.93.93,0,0,1-.68.55l-2.36.47a.93.93,0,0,0-.44,1.61Z"/><path id="Fill-25" class="cls-5" d="M278.2,65.77l-2.4-.23a.9.9,0,0,1-.73-.47L273.89,63a.93.93,0,0,0-1.67.09l-1,2.21a1,1,0,0,1-.68.55l-2.37.46a.94.94,0,0,0-.43,1.62l1.81,1.6a.91.91,0,0,1,.31.81l-.29,2.39a.94.94,0,0,0,1.41.92l2.07-1.23a1,1,0,0,1,.87,0l2.19,1a.94.94,0,0,0,1.31-1l-.53-2.36a.93.93,0,0,1,.23-.84l1.64-1.76a.94.94,0,0,0-.6-1.57"/><path id="Fill-27" class="cls-7" d="M295,19.37a.93.93,0,0,0-.6-1.56l-2.37-.22a.89.89,0,0,1-.72-.47L290.16,15a.93.93,0,0,0-1.66.08l-.94,2.19a.92.92,0,0,1-.67.54l-2.35.46a.93.93,0,0,0-.43,1.61l1.79,1.57a.92.92,0,0,1,.31.81l-.28,2.37a.92.92,0,0,0,1.39.9l2.05-1.21a.94.94,0,0,1,.86-.05l2.17,1a.93.93,0,0,0,1.29-1.05L293.17,22a1,1,0,0,1,.22-.84Z"/><path id="Fill-29" class="cls-4" d="M246.3,76.05l-1.74-.16a.69.69,0,0,1-.53-.34L243.18,74a.67.67,0,0,0-1.21.07l-.69,1.6a.67.67,0,0,1-.49.39l-1.72.34a.67.67,0,0,0-.31,1.17l1.31,1.15a.66.66,0,0,1,.22.59l-.2,1.73a.68.68,0,0,0,1,.67l1.5-.89a.64.64,0,0,1,.63,0l1.59.73a.68.68,0,0,0,.94-.76l-.38-1.71a.66.66,0,0,1,.16-.6l1.19-1.28a.68.68,0,0,0-.43-1.14"/><path id="Fill-31" class="cls-4" d="M227.76,110.27l-3-4a1.91,1.91,0,0,1-.3-1.77L226,99.8a1.93,1.93,0,0,0-2.47-2.43L218.83,99a1.93,1.93,0,0,1-1.78-.27l-4-2.94A1.94,1.94,0,0,0,210,97.4l.11,5a1.93,1.93,0,0,1-.81,1.6l-4,2.91a1.93,1.93,0,0,0,.57,3.42l2.89.87,1.08.33c-1.14,1.11-2.31,2.23-3.48,3.32q-2.39,2.22-4.82,4.36-4.89,4.31-10,8.32c-3.41,2.7-6.94,5.23-10.53,7.68s-7.35,4.66-11.18,6.74c4-1.81,7.86-3.8,11.64-6s7.5-4.52,11.11-7,7.17-5,10.65-7.7c1.74-1.34,3.47-2.69,5.17-4.08,1.3-1,2.57-2.11,3.84-3.2l.27.83.08.25.87,2.71a1.92,1.92,0,0,0,3.42.51l2.85-4.09a1.93,1.93,0,0,1,1.59-.83l5,0a1.93,1.93,0,0,0,1.55-3.1"/><path id="Fill-33" class="cls-2" d="M193,55.33,187,51a2.94,2.94,0,0,1-1.21-2.41l.15-7.46a2.9,2.9,0,0,0-4.62-2.39l-6,4.43a2.93,2.93,0,0,1-2.67.4l-7.06-2.44a2.9,2.9,0,0,0-3.7,3.65l2.36,7.09a2.89,2.89,0,0,1-.44,2.65l-4.51,6a2.89,2.89,0,0,0,2.33,4.64l7.23-.41.19,0c-.31.64-.61,1.29-.94,1.93-.72,1.5-1.5,3-2.26,4.47s-1.58,3-2.39,4.42-1.64,2.93-2.48,4.38c-3.37,5.8-7,11.45-10.9,16.94-1.9,2.77-4,5.43-6,8.12-1,1.32-2.11,2.62-3.17,3.94l-1.58,2-1.66,1.9c-1.11,1.27-2.21,2.55-3.33,3.81l-3.47,3.68c-.58.61-1.15,1.23-1.74,1.83l-1.82,1.76-3.64,3.53,3.82-3.33,1.91-1.67c.63-.57,1.23-1.16,1.84-1.74l3.68-3.51c1.19-1.2,2.35-2.43,3.53-3.64l1.77-1.83,1.7-1.89c1.13-1.26,2.27-2.52,3.39-3.79,2.17-2.6,4.39-5.17,6.45-7.86,4.2-5.34,8.19-10.85,11.9-16.54.94-1.42,1.84-2.87,2.75-4.3s1.78-2.9,2.66-4.36,1.73-2.94,2.55-4.44c.24-.42.47-.85.71-1.28l3.42,5.19a2.9,2.9,0,0,0,5.14-.78l2.26-7.12A2.88,2.88,0,0,1,185,62.63l7.15-2.18a2.89,2.89,0,0,0,.85-5.12"/><g id="Group-37"><g class="cls-9"><path id="Fill-35" class="cls-3" d="M274.62,35.44s0-.11,0-.16a4.94,4.94,0,0,0-1.51-3.05l-9.51-9a5.06,5.06,0,0,1-1.53-4.47l2-12.93A5,5,0,0,0,261,.38c-.21-.08-.42-.14-.63-.2a5,5,0,0,0-3.72.42L245.13,6.87a5.13,5.13,0,0,1-4.73.07L228.72,1a5,5,0,0,0-5.7.81l-.13-.06,0,.17a4.94,4.94,0,0,0-1.49,4.54l2.41,12.86a5.07,5.07,0,0,1-1.39,4.52l-9.24,9.27a5.08,5.08,0,0,0,2.94,8.62l11.9,1.54-.5.88-1,1.67-1,1.67-1,1.66c-.68,1.1-1.36,2.21-2,3.3-2.81,4.38-5.69,8.72-8.71,13s-6.12,8.44-9.3,12.58l-4.86,6.14c-1.65,2-3.34,4-5,6l-1.26,1.51-.63.75-.65.73-2.6,2.93L186.87,99l-1.3,1.46-1.35,1.43-5.39,5.71c-.45.47-.89,1-1.35,1.42l-1.39,1.38-2.79,2.76L170.5,116l-1.39,1.38-1.45,1.33L161.88,124c-1.9,1.81-3.92,3.48-5.91,5.19l-6,5.11,6.26-4.79c2.08-1.6,4.19-3.16,6.19-4.87l6.08-5,1.51-1.26L171.5,117l2.95-2.62,3-2.63,1.47-1.31c.48-.44,1-.9,1.43-1.36l5.73-5.44,1.43-1.37,1.39-1.4,2.77-2.81,2.78-2.82.69-.7.68-.72,1.35-1.45c1.79-1.93,3.6-3.85,5.38-5.8l5.23-5.94c3.43-4,6.83-8.06,10.09-12.23s6.45-8.38,9.55-12.69c.77-1.07,1.52-2.17,2.28-3.26l1.13-1.63,1.11-1.66L233,47.54l.24-.39L239,57.8a5.08,5.08,0,0,0,9.11-.14l5.62-11.82A5,5,0,0,1,257.48,43l12.93-2.08a5,5,0,0,0,4.21-5.49"/></g></g></g></g></g></g></g></g></svg>